<?xml version="1.0" standalone="no"?>
<!DOCTYPE svg PUBLIC "-//W3C//DTD SVG 20010904//EN"
 "http://www.w3.org/TR/2001/REC-SVG-20010904/DTD/svg10.dtd">
<svg version="1.0" xmlns="http://www.w3.org/2000/svg"
 width="300.000000pt" height="464.000000pt" viewBox="0 0 300.000000 464.000000"
 preserveAspectRatio="xMidYMid meet">
<g transform="translate(0.000000,464.000000) scale(0.100000,-0.100000)"
fill="#000000" stroke="none">
<path d="M1355 3954 c-216 -31 -340 -70 -479 -150 -340 -196 -547 -560 -563
-990 -8 -212 30 -368 132 -533 59 -95 250 -350 350 -466 128 -149 155 -226
170 -475 8 -157 24 -268 40 -301 36 -68 213 -173 345 -203 174 -41 382 3 552
116 98 65 118 108 139 298 14 132 62 367 83 411 9 19 58 89 109 156 270 356
321 426 367 510 92 165 119 268 119 453 1 308 -107 590 -311 814 -169 186
-370 291 -653 341 -88 16 -340 28 -400 19z m387 -59 c282 -46 482 -152 653
-347 131 -150 218 -327 266 -543 21 -92 18 -363 -4 -445 -37 -135 -131 -297
-299 -510 -124 -159 -237 -310 -263 -355 -27 -46 -77 -276 -94 -435 -17 -156
-33 -202 -84 -245 -94 -81 -296 -155 -421 -155 -138 1 -318 68 -412 154 -55
50 -59 66 -75 286 -22 324 -45 388 -199 560 -58 64 -299 390 -339 458 -48 81
-83 173 -106 277 -27 118 -16 320 24 480 70 275 229 509 443 652 153 102 308
158 500 183 92 11 296 4 410 -15z"/>
<path d="M1012 3063 c-36 -15 -56 -119 -28 -142 35 -29 90 41 84 107 -3 37
-22 49 -56 35z"/>
<path d="M944 2883 c-36 -37 -58 -105 -58 -186 -1 -67 2 -81 18 -93 27 -19
111 -18 169 3 l48 17 49 -27 c65 -37 120 -36 216 4 l75 31 30 -28 c43 -41 123
-45 203 -10 72 32 86 32 132 1 27 -18 50 -25 86 -25 61 0 162 40 205 82 28 28
33 29 39 14 22 -56 -64 -268 -191 -471 -118 -189 -204 -386 -234 -535 -17 -88
-41 -318 -41 -397 0 -61 3 -74 19 -82 38 -21 49 18 76 260 20 189 32 249 61
328 37 98 148 314 209 406 95 145 157 291 174 416 11 87 6 126 -22 157 -30 32
-66 28 -125 -17 -87 -64 -136 -87 -168 -76 -40 15 -40 29 4 77 21 24 44 53 51
65 29 56 0 93 -73 93 -40 0 -52 -5 -74 -29 -15 -15 -35 -51 -45 -79 -14 -40
-27 -57 -64 -81 -25 -17 -61 -33 -79 -37 -38 -7 -84 2 -84 16 0 5 25 34 55 63
44 42 55 60 55 84 0 70 -99 96 -157 41 -14 -13 -39 -51 -55 -86 -32 -67 -69
-99 -142 -122 -35 -11 -40 -10 -59 9 l-21 21 41 42 c92 96 83 158 -24 158 -59
0 -84 -21 -109 -93 -21 -63 -83 -119 -127 -115 -41 4 -45 25 -18 88 27 62 27
106 2 120 -26 13 -27 13 -47 -7z m336 -38 c17 -21 4 -32 -20 -17 -11 7 -28 12
-37 13 -12 1 -10 4 7 9 36 12 36 11 50 -5z m338 -11 c2 -11 -4 -27 -13 -34
-13 -10 -15 -9 -15 8 0 12 -9 23 -20 27 -32 10 -23 27 13 23 24 -2 33 -8 35
-24z m319 11 c8 -23 0 -26 -38 -13 -34 12 -34 12 -9 19 38 11 40 10 47 -6z
m-973 -42 c-4 -21 -11 -44 -16 -50 -6 -7 -7 -28 -4 -47 5 -26 14 -37 35 -44
16 -6 31 -8 34 -6 2 3 7 -2 10 -10 5 -11 -2 -18 -21 -22 -15 -3 -31 -7 -37 -8
-5 -2 -20 7 -31 20 -16 17 -21 32 -18 61 6 63 19 109 36 131 17 20 19 14 12
-25z m286 9 c0 -13 -36 -43 -43 -36 -10 10 12 44 28 44 8 0 15 -4 15 -8z m330
1 c0 -10 -32 -43 -42 -43 -12 0 -10 24 4 38 13 13 38 16 38 5z m320 -1 c0 -5
-9 -17 -20 -27 -20 -18 -25 -11 -14 19 6 17 34 23 34 8z m-34 -52 c12 0 15 -5
9 -22 -19 -63 -18 -71 8 -92 16 -13 23 -26 19 -33 -6 -9 -22 -6 -61 13 -44 20
-63 23 -102 18 -27 -4 -49 -10 -49 -14 0 -11 -60 -18 -66 -8 -3 4 -11 8 -17 8
-8 0 -8 -3 2 -9 7 -5 9 -11 5 -14 -16 -9 -60 0 -102 22 -49 25 -86 27 -126 6
-34 -18 -36 -18 -36 -4 0 5 5 7 10 4 6 -3 10 1 10 9 0 9 5 16 10 16 18 0 72
54 91 93 20 39 36 47 45 22 4 -8 15 -15 25 -15 18 0 19 -2 4 -30 -20 -39 -19
-67 4 -80 25 -13 141 -13 141 0 0 6 7 10 15 10 22 0 53 29 93 89 32 48 36 52
43 32 5 -11 16 -21 25 -21z m-653 0 c7 0 12 -11 12 -25 0 -14 -3 -25 -7 -25
-5 0 -8 -11 -8 -24 0 -23 44 -64 63 -58 5 1 6 -2 2 -8 -10 -16 -52 -12 -102
11 -31 14 -56 19 -82 15 -20 -4 -43 -1 -51 4 -13 9 -12 11 5 8 20 -3 95 61 95
82 0 5 10 20 21 31 20 20 23 20 31 5 5 -9 14 -16 21 -16z m979 -55 c14 -31 4
-43 -22 -27 -29 18 -49 15 -84 -12 -42 -31 -78 -43 -70 -22 3 8 14 18 24 21
10 3 30 17 46 30 25 22 44 30 82 34 7 0 18 -10 24 -24z m-52 -298 c0 -18 -91
-193 -114 -219 -28 -31 -47 -64 -103 -178 -26 -52 -51 -96 -55 -98 -5 -2 -8
-10 -8 -18 0 -8 -9 -24 -19 -35 -19 -21 -19 -21 -5 18 8 21 17 46 21 56 3 9 9
17 14 17 5 0 9 6 9 14 0 19 79 170 91 174 5 2 9 8 9 13 0 4 20 39 44 77 25 38
57 98 72 135 24 58 44 79 44 44z"/>
</g>
</svg>
